<svg width="100" height="100" viewBox="0 0 100 100" fill="none" xmlns="http://www.w3.org/2000/svg">
<rect x="0.5" y="0.5" width="99" height="99" stroke="#9EAFC2" stroke-opacity="0.2"/>
<g opacity="0.9">
<path d="M68.9639 47.5719C77.0837 49.3263 82.3567 52.16 82.3567 55.3572C82.3567 60.6827 67.7261 65 49.6783 65C31.6306 65 17 60.6827 17 55.3572C17 52.16 22.273 49.3263 30.3928 47.5719" stroke="#020F59" stroke-width="2"/>
<path d="M42.0859 43.2031C42.0859 43.9271 41.875 44.5312 41.4531 45.0156C41.0312 45.4948 40.4375 45.8177 39.6719 45.9844V46.0469C40.5885 46.1615 41.276 46.4479 41.7344 46.9062C42.1927 47.3594 42.4219 47.9635 42.4219 48.7188C42.4219 49.8177 42.0339 50.6667 41.2578 51.2656C40.4818 51.8594 39.3776 52.1562 37.9453 52.1562C36.6797 52.1562 35.612 51.9505 34.7422 51.5391V49.9062C35.2266 50.1458 35.7396 50.3307 36.2812 50.4609C36.8229 50.5911 37.3438 50.6562 37.8438 50.6562C38.7292 50.6562 39.3906 50.4922 39.8281 50.1641C40.2656 49.8359 40.4844 49.3281 40.4844 48.6406C40.4844 48.0312 40.2422 47.5833 39.7578 47.2969C39.2734 47.0104 38.513 46.8672 37.4766 46.8672H36.4844V45.375H37.4922C39.3151 45.375 40.2266 44.7448 40.2266 43.4844C40.2266 42.9948 40.0677 42.6172 39.75 42.3516C39.4323 42.0859 38.9635 41.9531 38.3438 41.9531C37.9115 41.9531 37.4948 42.0156 37.0938 42.1406C36.6927 42.2604 36.2188 42.4974 35.6719 42.8516L34.7734 41.5703C35.8203 40.7995 37.0365 40.4141 38.4219 40.4141C39.5729 40.4141 40.4714 40.6615 41.1172 41.1562C41.763 41.651 42.0859 42.3333 42.0859 43.2031ZM43.9453 47.1328C43.9453 42.6641 45.7656 40.4297 49.4062 40.4297C49.9792 40.4297 50.4635 40.474 50.8594 40.5625V42.0938C50.4635 41.9792 50.0052 41.9219 49.4844 41.9219C48.2604 41.9219 47.3411 42.25 46.7266 42.9062C46.112 43.5625 45.7786 44.6146 45.7266 46.0625H45.8203C46.0651 45.6406 46.4089 45.3151 46.8516 45.0859C47.2943 44.8516 47.8151 44.7344 48.4141 44.7344C49.4505 44.7344 50.2578 45.0521 50.8359 45.6875C51.4141 46.3229 51.7031 47.1849 51.7031 48.2734C51.7031 49.4714 51.3672 50.4193 50.6953 51.1172C50.0286 51.8099 49.1172 52.1562 47.9609 52.1562C47.1432 52.1562 46.4323 51.9609 45.8281 51.5703C45.224 51.1745 44.7578 50.6016 44.4297 49.8516C44.1068 49.0964 43.9453 48.1901 43.9453 47.1328ZM47.9297 50.6406C48.5599 50.6406 49.0443 50.4375 49.3828 50.0312C49.7266 49.625 49.8984 49.0443 49.8984 48.2891C49.8984 47.6328 49.737 47.1172 49.4141 46.7422C49.0964 46.3672 48.6172 46.1797 47.9766 46.1797C47.5807 46.1797 47.2161 46.2656 46.8828 46.4375C46.5495 46.6042 46.2865 46.8359 46.0938 47.1328C45.901 47.4245 45.8047 47.724 45.8047 48.0312C45.8047 48.7656 46.0026 49.3854 46.3984 49.8906C46.7995 50.3906 47.3099 50.6406 47.9297 50.6406ZM60.7969 46.2891C60.7969 48.2734 60.4766 49.7474 59.8359 50.7109C59.2005 51.6745 58.2266 52.1562 56.9141 52.1562C55.6432 52.1562 54.6797 51.6589 54.0234 50.6641C53.3672 49.6693 53.0391 48.2109 53.0391 46.2891C53.0391 44.2734 53.3568 42.7891 53.9922 41.8359C54.6328 40.8776 55.6068 40.3984 56.9141 40.3984C58.1901 40.3984 59.1562 40.8984 59.8125 41.8984C60.4688 42.8984 60.7969 44.362 60.7969 46.2891ZM54.8984 46.2891C54.8984 47.8464 55.0573 48.9583 55.375 49.625C55.6979 50.2917 56.2109 50.625 56.9141 50.625C57.6172 50.625 58.1302 50.2865 58.4531 49.6094C58.7812 48.9323 58.9453 47.8255 58.9453 46.2891C58.9453 44.7578 58.7812 43.651 58.4531 42.9688C58.1302 42.2812 57.6172 41.9375 56.9141 41.9375C56.2109 41.9375 55.6979 42.2734 55.375 42.9453C55.0573 43.6172 54.8984 44.7318 54.8984 46.2891ZM62.3438 42.9922C62.3438 42.2891 62.5911 41.6849 63.0859 41.1797C63.5807 40.6693 64.1901 40.4141 64.9141 40.4141C65.6328 40.4141 66.2396 40.6641 66.7344 41.1641C67.2292 41.6641 67.4766 42.2734 67.4766 42.9922C67.4766 43.7161 67.2266 44.3255 66.7266 44.8203C66.2266 45.3099 65.6224 45.5547 64.9141 45.5547C64.4557 45.5547 64.026 45.4427 63.625 45.2188C63.2292 44.9896 62.9167 44.6771 62.6875 44.2812C62.4583 43.8854 62.3438 43.4557 62.3438 42.9922ZM63.5391 42.9922C63.5391 43.3568 63.6719 43.6745 63.9375 43.9453C64.2031 44.2161 64.5286 44.3516 64.9141 44.3516C65.2995 44.3516 65.625 44.2188 65.8906 43.9531C66.1562 43.6823 66.2891 43.362 66.2891 42.9922C66.2891 42.5964 66.1536 42.2656 65.8828 42C65.612 41.7344 65.2891 41.6016 64.9141 41.6016C64.5391 41.6016 64.2161 41.737 63.9453 42.0078C63.6745 42.2786 63.5391 42.6068 63.5391 42.9922Z" fill="#020F59"/>
</g>
</svg>
