<svg width="20" height="21" viewBox="0 0 20 21" fill="none" xmlns="http://www.w3.org/2000/svg">
<path d="M19.05 9.99761L10.5164 18.5555C9.47096 19.6039 8.05305 20.1929 6.57458 20.1929C5.09611 20.1929 3.67819 19.6039 2.63276 18.5555C1.58732 17.5071 1 16.0851 1 14.6025C1 13.1198 1.58732 11.6979 2.63276 10.6495L11.1664 2.09159C11.8634 1.39266 12.8086 1 13.7943 1C14.7799 1 15.7252 1.39266 16.4222 2.09159C17.1191 2.79053 17.5107 3.73849 17.5107 4.72693C17.5107 5.71538 17.1191 6.66334 16.4222 7.36227L7.87923 15.9201C7.53075 16.2696 7.05812 16.4659 6.56529 16.4659C6.07247 16.4659 5.59983 16.2696 5.25135 15.9201C4.90287 15.5707 4.7071 15.0967 4.7071 14.6025C4.7071 14.1082 4.90287 13.6343 5.25135 13.2848L13.135 5.3881" stroke="black" stroke-width="1.5" stroke-linecap="round" stroke-linejoin="round"/>
</svg>
