<svg width="101" height="18" viewBox="0 0 101 18" fill="none" xmlns="http://www.w3.org/2000/svg">
<path d="M50.322 0L52.6352 6.28259H59.0625L53.8201 10.1346L56.154 16.7488L50.322 12.6169L44.4904 16.7488L46.8243 10.1346L41.5816 6.28259H48.0089L50.322 0Z" fill="#9EAFC2"/>
<path d="M70.572 0L72.8852 6.28259H79.3125L74.0701 10.1346L76.404 16.7488L70.572 12.6169L64.7404 16.7488L67.0742 10.1346L61.8316 6.28259H68.2589L70.572 0Z" fill="#9EAFC2"/>
<path d="M90.822 0L93.1352 6.28259H99.5625L94.3201 10.1346L96.654 16.7488L90.822 12.6169L84.9904 16.7488L87.3242 10.1346L82.0816 6.28259H88.5089L90.822 0Z" fill="#9EAFC2"/>
<path d="M99.5625 6.28247H93.1352L90.822 12.6167L96.654 16.7487L94.3201 10.1345L99.5625 6.28247Z" fill="white" stroke="#9EAFC2" stroke-width="0.2"/>
<path d="M8.74047 0L6.42729 6.28259H0L5.24243 10.1346L2.90853 16.7488L8.74047 12.6169L14.5721 16.7488L12.2383 10.1346L17.4809 6.28259H11.0537L8.74047 0Z" fill="#9EAFC2"/>
<path d="M28.9905 0L26.6773 6.28259H20.25L25.4924 10.1346L23.1585 16.7488L28.9905 12.6169L34.8221 16.7488L32.4883 10.1346L37.7309 6.28259H31.3036L28.9905 0Z" fill="#9EAFC2"/>
</svg>
