<svg width="60" height="60" viewBox="0 0 60 60" fill="none" xmlns="http://www.w3.org/2000/svg">
<rect opacity="0.5" width="60" height="60" fill="#9EAFC2"/>
<path opacity="0.5" d="M29.5 27.3077C26.7672 27.3077 24.55 29.4784 24.55 32.1538C24.55 34.8293 26.7672 37 29.5 37C32.2328 37 34.45 34.8293 34.45 32.1538C34.45 29.4784 32.2328 27.3077 29.5 27.3077ZM41.6 20.3077H37.75L36.8734 18.0192C36.4437 16.9087 35.1031 16 33.9 16H25.1C23.8969 16 22.5563 16.9087 22.1266 18.0192L21.25 20.3077H17.4C14.9766 20.3077 13 22.2428 13 24.6154V39.6923C13 42.0649 14.9766 44 17.4 44H41.6C44.0234 44 46 42.0649 46 39.6923V24.6154C46 22.2428 44.0234 20.3077 41.6 20.3077ZM29.5 39.6923C25.2547 39.6923 21.8 36.3101 21.8 32.1538C21.8 27.9976 25.2547 24.6154 29.5 24.6154C33.7453 24.6154 37.2 27.9976 37.2 32.1538C37.2 36.3101 33.7453 39.6923 29.5 39.6923Z" fill="white"/>
<rect x="45.9985" y="13.2" width="1.6" height="14.4" fill="white"/>
<rect width="-1.6" height="14.4" rx="-0.8" transform="matrix(0 1 1 0 39.5991 21.2)" fill="white"/>
</svg>
