<svg width="22" height="19" viewBox="0 0 22 19" fill="none" xmlns="http://www.w3.org/2000/svg">
<path d="M19.8401 1.61012C19.3294 1.09912 18.7229 0.693763 18.0555 0.417201C17.388 0.140638 16.6726 -0.00170898 15.9501 -0.00170898C15.2276 -0.00170898 14.5122 0.140638 13.8448 0.417201C13.1773 0.693763 12.5709 1.09912 12.0601 1.61012L11.0001 2.67012L9.94012 1.61012C8.90843 0.578425 7.50915 -0.00117422 6.05012 -0.00117421C4.59109 -0.0011742 3.19181 0.578425 2.16012 1.61012C1.12843 2.64181 0.548828 4.04108 0.548828 5.50012C0.548828 6.95915 1.12843 8.35842 2.16012 9.39012L3.22012 10.4501L11.0001 18.2301L18.7801 10.4501L19.8401 9.39012C20.3511 8.87936 20.7565 8.27293 21.033 7.60547C21.3096 6.93801 21.4519 6.2226 21.4519 5.50012C21.4519 4.77763 21.3096 4.06222 21.033 3.39476C20.7565 2.7273 20.3511 2.12087 19.8401 1.61012Z" fill="#020F59"/>
</svg>
